<svg width="12" height="12" viewBox="0 0 12 12" fill="none" xmlns="http://www.w3.org/2000/svg">
<rect width="12" height="12" rx="6" fill="#0369A1"/>
<path d="M2.7998 4.4001C2.7998 4.18792 2.88409 3.98444 3.03412 3.83441C3.18415 3.68438 3.38763 3.6001 3.5998 3.6001H5.9998C6.21198 3.6001 6.41546 3.68438 6.56549 3.83441C6.71552 3.98444 6.7998 4.18792 6.7998 4.4001V7.6001C6.7998 7.81227 6.71552 8.01575 6.56549 8.16578C6.41546 8.31581 6.21198 8.4001 5.9998 8.4001H3.5998C3.38763 8.4001 3.18415 8.31581 3.03412 8.16578C2.88409 8.01575 2.7998 7.81227 2.7998 7.6001V4.4001ZM7.821 4.8425C7.75457 4.87569 7.69869 4.92673 7.65963 4.98989C7.62056 5.05305 7.59984 5.12583 7.5998 5.2001V6.8001C7.59984 6.87436 7.62056 6.94715 7.65963 7.01031C7.69869 7.07347 7.75457 7.1245 7.821 7.1577L8.621 7.5577C8.68197 7.58816 8.74971 7.60255 8.8178 7.59948C8.88589 7.59641 8.95206 7.576 9.01005 7.54018C9.06803 7.50435 9.1159 7.45431 9.14911 7.39479C9.18232 7.33527 9.19977 7.26825 9.1998 7.2001V4.8001C9.19977 4.73194 9.18232 4.66492 9.14911 4.60541C9.1159 4.54589 9.06803 4.49584 9.01005 4.46002C8.95206 4.4242 8.88589 4.40378 8.8178 4.40072C8.74971 4.39765 8.68197 4.41203 8.621 4.4425L7.821 4.8425Z" fill="#E0F2FE"/>
</svg>
