<svg width="13" height="13" viewBox="0 0 13 13" fill="none" xmlns="http://www.w3.org/2000/svg">
<path d="M9.625 5.875H9C8.83424 5.875 8.67527 5.94085 8.55806 6.05806C8.44085 6.17527 8.375 6.33424 8.375 6.5C8.375 6.66576 8.44085 6.82473 8.55806 6.94194C8.67527 7.05915 8.83424 7.125 9 7.125H9.625C9.79076 7.125 9.94973 7.05915 10.0669 6.94194C10.1842 6.82473 10.25 6.66576 10.25 6.5C10.25 6.33424 10.1842 6.17527 10.0669 6.05806C9.94973 5.94085 9.79076 5.875 9.625 5.875ZM9.625 8.375H9C8.83424 8.375 8.67527 8.44085 8.55806 8.55806C8.44085 8.67527 8.375 8.83424 8.375 9C8.375 9.16576 8.44085 9.32473 8.55806 9.44194C8.67527 9.55915 8.83424 9.625 9 9.625H9.625C9.79076 9.625 9.94973 9.55915 10.0669 9.44194C10.1842 9.32473 10.25 9.16576 10.25 9C10.25 8.83424 10.1842 8.67527 10.0669 8.55806C9.94973 8.44085 9.79076 8.375 9.625 8.375ZM5.875 4.625H9.625C9.79076 4.625 9.94973 4.55915 10.0669 4.44194C10.1842 4.32473 10.25 4.16576 10.25 4C10.25 3.83424 10.1842 3.67527 10.0669 3.55806C9.94973 3.44085 9.79076 3.375 9.625 3.375H5.875C5.70924 3.375 5.55027 3.44085 5.43306 3.55806C5.31585 3.67527 5.25 3.83424 5.25 4C5.25 4.16576 5.31585 4.32473 5.43306 4.44194C5.55027 4.55915 5.70924 4.625 5.875 4.625V4.625ZM12.125 0.875H3.375C3.20924 0.875 3.05027 0.940848 2.93306 1.05806C2.81585 1.17527 2.75 1.33424 2.75 1.5V3.375H0.875C0.70924 3.375 0.550268 3.44085 0.433058 3.55806C0.315848 3.67527 0.25 3.83424 0.25 4V10.25C0.25 10.7473 0.447544 11.2242 0.799175 11.5758C1.15081 11.9275 1.62772 12.125 2.125 12.125H10.25C10.913 12.125 11.5489 11.8616 12.0178 11.3928C12.4866 10.9239 12.75 10.288 12.75 9.625V1.5C12.75 1.33424 12.6842 1.17527 12.5669 1.05806C12.4497 0.940848 12.2908 0.875 12.125 0.875V0.875ZM2.75 10.25C2.75 10.4158 2.68415 10.5747 2.56694 10.6919C2.44973 10.8092 2.29076 10.875 2.125 10.875C1.95924 10.875 1.80027 10.8092 1.68306 10.6919C1.56585 10.5747 1.5 10.4158 1.5 10.25V4.625H2.75V10.25ZM11.5 9.625C11.5 9.95652 11.3683 10.2745 11.1339 10.5089C10.8995 10.7433 10.5815 10.875 10.25 10.875H3.8875C3.96026 10.6746 3.99831 10.4632 4 10.25V2.125H11.5V9.625ZM5.875 7.125H6.5C6.66576 7.125 6.82473 7.05915 6.94194 6.94194C7.05915 6.82473 7.125 6.66576 7.125 6.5C7.125 6.33424 7.05915 6.17527 6.94194 6.05806C6.82473 5.94085 6.66576 5.875 6.5 5.875H5.875C5.70924 5.875 5.55027 5.94085 5.43306 6.05806C5.31585 6.17527 5.25 6.33424 5.25 6.5C5.25 6.66576 5.31585 6.82473 5.43306 6.94194C5.55027 7.05915 5.70924 7.125 5.875 7.125V7.125ZM5.875 9.625H6.5C6.66576 9.625 6.82473 9.55915 6.94194 9.44194C7.05915 9.32473 7.125 9.16576 7.125 9C7.125 8.83424 7.05915 8.67527 6.94194 8.55806C6.82473 8.44085 6.66576 8.375 6.5 8.375H5.875C5.70924 8.375 5.55027 8.44085 5.43306 8.55806C5.31585 8.67527 5.25 8.83424 5.25 9C5.25 9.16576 5.31585 9.32473 5.43306 9.44194C5.55027 9.55915 5.70924 9.625 5.875 9.625V9.625Z" fill="white"/>
</svg>
