<svg width="15" height="15" viewBox="0 0 15 15" fill="none" xmlns="http://www.w3.org/2000/svg">
<path d="M4.26094 6.29438L3.85313 7.5H2.8125L4.55813 2.8125H5.76187L7.5 7.5H6.40594L5.99812 6.29438H4.26094ZM5.79281 5.60438L5.15625 3.70875H5.11031L4.47375 5.60438H5.79375H5.79281Z" fill="#3182CE"/>
<path d="M0 1.875C0 1.37772 0.197544 0.900806 0.549175 0.549175C0.900806 0.197544 1.37772 0 1.875 0L8.4375 0C8.93478 0 9.41169 0.197544 9.76332 0.549175C10.115 0.900806 10.3125 1.37772 10.3125 1.875V4.6875H13.125C13.6223 4.6875 14.0992 4.88504 14.4508 5.23667C14.8025 5.58831 15 6.06522 15 6.5625V13.125C15 13.6223 14.8025 14.0992 14.4508 14.4508C14.0992 14.8025 13.6223 15 13.125 15H6.5625C6.06522 15 5.58831 14.8025 5.23667 14.4508C4.88504 14.0992 4.6875 13.6223 4.6875 13.125V10.3125H1.875C1.37772 10.3125 0.900806 10.115 0.549175 9.76332C0.197544 9.41169 0 8.93478 0 8.4375V1.875ZM1.875 0.9375C1.62636 0.9375 1.3879 1.03627 1.21209 1.21209C1.03627 1.3879 0.9375 1.62636 0.9375 1.875V8.4375C0.9375 8.68614 1.03627 8.9246 1.21209 9.10041C1.3879 9.27623 1.62636 9.375 1.875 9.375H8.4375C8.68614 9.375 8.9246 9.27623 9.10041 9.10041C9.27623 8.9246 9.375 8.68614 9.375 8.4375V1.875C9.375 1.62636 9.27623 1.3879 9.10041 1.21209C8.9246 1.03627 8.68614 0.9375 8.4375 0.9375H1.875ZM8.56687 10.3078C8.74781 10.59 8.94375 10.8544 9.1575 11.1009C8.45625 11.64 7.58906 12.0394 6.5625 12.3122C6.72937 12.5156 6.98531 12.9075 7.08281 13.125C8.1375 12.7884 9.03281 12.3337 9.78844 11.7244C10.5169 12.3478 11.4188 12.8166 12.5353 13.1044C12.66 12.8663 12.9234 12.4734 13.125 12.27C12.0703 12.0328 11.1966 11.6194 10.4813 11.0662C11.1197 10.3659 11.6269 9.51844 12.0009 8.48156H13.125V7.5H10.3125V8.48156H11.0297C10.7316 9.27281 10.3359 9.93094 9.83719 10.4784C9.69943 10.3317 9.56956 10.1777 9.44812 10.0172C9.18357 10.1868 8.88043 10.2868 8.56687 10.3078Z" fill="#3182CE"/>
</svg>
