<svg width="13" height="13" viewBox="0 0 13 13" fill="none" xmlns="http://www.w3.org/2000/svg">
<path d="M12.0439 9.78125L10.3502 6.85625C10.6968 6.21969 10.8773 5.50604 10.8752 4.78125C10.8752 3.62093 10.4142 2.50813 9.59376 1.68766C8.77329 0.867186 7.66049 0.40625 6.50017 0.40625C5.33985 0.40625 4.22705 0.867186 3.40658 1.68766C2.5861 2.50813 2.12517 3.62093 2.12517 4.78125C2.12302 5.50604 2.30358 6.21969 2.65017 6.85625L0.956418 9.78125C0.901456 9.87644 0.872572 9.98445 0.872681 10.0944C0.87279 10.2043 0.901886 10.3122 0.957036 10.4073C1.01219 10.5024 1.09144 10.5813 1.1868 10.636C1.28215 10.6906 1.39025 10.7192 1.50017 10.7188H3.29392L4.20642 12.2562C4.23718 12.3072 4.27506 12.3535 4.31892 12.3938C4.43478 12.5054 4.58925 12.5681 4.75017 12.5687H4.83767C4.93202 12.5558 5.02218 12.5215 5.10125 12.4685C5.18033 12.4154 5.24623 12.3449 5.29392 12.2625L6.50017 10.1875L7.70642 12.2812C7.75481 12.3625 7.82102 12.4317 7.90005 12.4837C7.97908 12.5357 8.06887 12.569 8.16267 12.5812H8.25017C8.41325 12.5822 8.57025 12.5194 8.68767 12.4063C8.7297 12.3683 8.76555 12.324 8.79392 12.275L9.70642 10.7375H11.5002C11.6103 10.7379 11.7186 10.7093 11.8141 10.6544C11.9096 10.5995 11.9889 10.5204 12.0439 10.425C12.1023 10.3278 12.1332 10.2165 12.1332 10.1031C12.1332 9.98972 12.1023 9.87846 12.0439 9.78125V9.78125ZM4.74392 10.7375L4.18767 9.80625C4.1329 9.71386 4.05524 9.63714 3.96218 9.58349C3.86913 9.52985 3.76382 9.5011 3.65642 9.5H2.57517L3.46892 7.95C4.08437 8.54305 4.86005 8.94284 5.70017 9.1L4.74392 10.7375ZM6.50017 7.90625C5.8821 7.90625 5.27791 7.72297 4.76401 7.37959C4.25011 7.03621 3.84957 6.54815 3.61304 5.97714C3.37652 5.40612 3.31463 4.77778 3.43521 4.17159C3.55579 3.5654 3.85342 3.00858 4.29046 2.57154C4.7275 2.1345 5.28432 1.83687 5.89051 1.7163C6.4967 1.59572 7.12503 1.6576 7.69605 1.89413C8.26707 2.13065 8.75513 2.53119 9.09851 3.04509C9.44189 3.559 9.62517 4.16318 9.62517 4.78125C9.62517 5.61005 9.29593 6.40491 8.70988 6.99096C8.12383 7.57701 7.32897 7.90625 6.50017 7.90625V7.90625ZM9.34392 9.5C9.23651 9.5011 9.13121 9.52985 9.03815 9.58349C8.9451 9.63714 8.86744 9.71386 8.81267 9.80625L8.25642 10.7375L7.30642 9.08125C8.14359 8.92087 8.9164 8.52145 9.53142 7.93125L10.4252 9.48125L9.34392 9.5Z" fill="#3182CE"/>
</svg>
