<svg width="15" height="16" viewBox="0 0 15 16" fill="none" xmlns="http://www.w3.org/2000/svg">
<path d="M9.7451 2.39175C9.17498 1.77622 8.37869 1.43726 7.49978 1.43726C6.61619 1.43726 5.81726 1.77417 5.24978 2.38589C4.67615 3.00435 4.39666 3.84487 4.46228 4.75249C4.59236 6.54311 5.95496 7.99975 7.49978 7.99975C9.04461 7.99975 10.4049 6.54341 10.537 4.75307C10.6035 3.85366 10.3222 3.01489 9.7451 2.39175Z" fill="#3182CE"/>
<path d="M12.656 14.5615H2.34355C2.20857 14.5633 2.07489 14.5349 1.95225 14.4785C1.82961 14.4221 1.72108 14.3391 1.63457 14.2354C1.44414 14.0078 1.36738 13.697 1.42422 13.3826C1.67148 12.0109 2.44316 10.8587 3.65605 10.0498C4.73359 9.33174 6.09853 8.93652 7.4998 8.93652C8.90107 8.93652 10.266 9.33203 11.3435 10.0498C12.5564 10.8584 13.3281 12.0106 13.5754 13.3823C13.6322 13.6967 13.5555 14.0075 13.365 14.2352C13.2785 14.3388 13.17 14.4219 13.0474 14.4784C12.9247 14.5348 12.791 14.5632 12.656 14.5615V14.5615Z" fill="#3182CE"/>
</svg>
