<svg width="13" height="13" viewBox="0 0 13 13" fill="none" xmlns="http://www.w3.org/2000/svg">
<path d="M11.4945 0.251221C11.4124 0.251174 11.3311 0.267308 11.2553 0.298701C11.1794 0.330093 11.1105 0.376129 11.0525 0.434175C10.9944 0.492221 10.9484 0.561139 10.917 0.636988C10.8856 0.712838 10.8695 0.794131 10.8695 0.876221V1.27417C10.3424 1.92774 9.67617 2.45554 8.91935 2.81917C8.16253 3.1828 7.33415 3.3731 6.49451 3.37622H2.74451C2.24739 3.37676 1.77079 3.57448 1.41928 3.92599C1.06777 4.27751 0.870049 4.75411 0.869507 5.25122V6.50122C0.870049 6.99834 1.06777 7.47493 1.41928 7.82645C1.77079 8.17796 2.24739 8.37568 2.74451 8.37622H3.04688L1.54517 11.8802C1.50436 11.9753 1.48779 12.0789 1.49695 12.182C1.50611 12.285 1.54071 12.3841 1.59765 12.4705C1.65459 12.5568 1.73208 12.6277 1.82316 12.6767C1.91425 12.7257 2.01608 12.7513 2.11951 12.7512H4.61951C4.74185 12.7513 4.86152 12.7154 4.96364 12.648C5.06575 12.5806 5.14581 12.4847 5.19385 12.3722L6.8962 8.39997C7.66535 8.45644 8.41476 8.66999 9.09815 9.02742C9.78154 9.38486 10.3844 9.87859 10.8695 10.4781V10.8762C10.8695 11.042 10.9354 11.201 11.0526 11.3182C11.1698 11.4354 11.3287 11.5012 11.4945 11.5012C11.6603 11.5012 11.8192 11.4354 11.9365 11.3182C12.0537 11.201 12.1195 11.042 12.1195 10.8762V0.876221C12.1196 0.794131 12.1034 0.712837 12.072 0.636987C12.0406 0.561137 11.9946 0.492219 11.9366 0.434173C11.8785 0.376127 11.8096 0.330091 11.7337 0.298699C11.6579 0.267307 11.5766 0.251173 11.4945 0.251221V0.251221ZM2.74451 7.12622C2.57878 7.12611 2.41987 7.06023 2.30269 6.94304C2.1855 6.82585 2.11962 6.66695 2.11951 6.50122V5.25122C2.11962 5.08549 2.1855 4.92659 2.30269 4.8094C2.41988 4.69222 2.57878 4.62633 2.74451 4.62622H3.36951V7.12622H2.74451ZM4.20752 11.5012H3.06738L4.40649 8.37622H5.54663L4.20752 11.5012ZM10.8695 8.70235C9.63717 7.68711 8.09118 7.13014 6.49451 7.12619H4.61951V4.62619H6.49451C8.09121 4.62211 9.63719 4.06504 10.8695 3.04973V8.70235Z" fill="#3182CE"/>
</svg>
