<svg width="15" height="11" viewBox="0 0 15 11" fill="none" xmlns="http://www.w3.org/2000/svg">
<path d="M7.6875 5.6375C8.02099 5.34883 8.28847 4.9918 8.4718 4.59064C8.65512 4.18948 8.75 3.75357 8.75 3.3125C8.75 2.4837 8.42076 1.68884 7.83471 1.10279C7.24866 0.51674 6.4538 0.1875 5.625 0.1875C4.7962 0.1875 4.00134 0.51674 3.41529 1.10279C2.82924 1.68884 2.5 2.4837 2.5 3.3125C2.5 3.75357 2.59488 4.18948 2.7782 4.59064C2.96153 4.9918 3.22901 5.34883 3.5625 5.6375C2.68759 6.03368 1.94529 6.67346 1.42436 7.48034C0.903434 8.28722 0.62592 9.22707 0.625 10.1875C0.625 10.3533 0.690848 10.5122 0.808058 10.6294C0.925268 10.7467 1.08424 10.8125 1.25 10.8125C1.41576 10.8125 1.57473 10.7467 1.69194 10.6294C1.80915 10.5122 1.875 10.3533 1.875 10.1875C1.875 9.19294 2.27009 8.23911 2.97335 7.53585C3.67661 6.83259 4.63044 6.4375 5.625 6.4375C6.61956 6.4375 7.57339 6.83259 8.27665 7.53585C8.97991 8.23911 9.375 9.19294 9.375 10.1875C9.375 10.3533 9.44085 10.5122 9.55806 10.6294C9.67527 10.7467 9.83424 10.8125 10 10.8125C10.1658 10.8125 10.3247 10.7467 10.4419 10.6294C10.5592 10.5122 10.625 10.3533 10.625 10.1875C10.6241 9.22707 10.3466 8.28722 9.82564 7.48034C9.30471 6.67346 8.56241 6.03368 7.6875 5.6375V5.6375ZM5.625 5.1875C5.25416 5.1875 4.89165 5.07753 4.58331 4.87151C4.27496 4.66548 4.03464 4.37264 3.89273 4.03003C3.75081 3.68742 3.71368 3.31042 3.78603 2.94671C3.85838 2.58299 4.03695 2.2489 4.29917 1.98667C4.5614 1.72445 4.89549 1.54588 5.25921 1.47353C5.62292 1.40118 5.99992 1.43831 6.34253 1.58023C6.68514 1.72214 6.97798 1.96246 7.18401 2.27081C7.39003 2.57915 7.5 2.94166 7.5 3.3125C7.5 3.80978 7.30246 4.28669 6.95083 4.63833C6.59919 4.98996 6.12228 5.1875 5.625 5.1875ZM11.7125 5.3875C12.1125 4.93708 12.3738 4.38066 12.4649 3.78521C12.556 3.18976 12.4731 2.58067 12.2261 2.03125C11.9791 1.48183 11.5786 1.0155 11.0728 0.688389C10.567 0.361281 9.97738 0.187339 9.375 0.1875C9.20924 0.1875 9.05027 0.253348 8.93306 0.370558C8.81585 0.487769 8.75 0.64674 8.75 0.8125C8.75 0.97826 8.81585 1.13723 8.93306 1.25444C9.05027 1.37165 9.20924 1.4375 9.375 1.4375C9.87228 1.4375 10.3492 1.63504 10.7008 1.98667C11.0525 2.33831 11.25 2.81522 11.25 3.3125C11.2491 3.64077 11.1621 3.96306 10.9975 4.24714C10.833 4.53121 10.5968 4.76711 10.3125 4.93125C10.2198 4.9847 10.1424 5.06104 10.0877 5.15296C10.033 5.24488 10.0028 5.34931 10 5.45625C9.99739 5.56235 10.0218 5.66737 10.071 5.76141C10.1202 5.85545 10.1926 5.93541 10.2813 5.99375L10.525 6.15625L10.6062 6.2C11.3596 6.55732 11.9952 7.12249 12.4381 7.82895C12.881 8.5354 13.1128 9.35371 13.1062 10.1875C13.1062 10.3533 13.1721 10.5122 13.2893 10.6294C13.4065 10.7467 13.5655 10.8125 13.7312 10.8125C13.897 10.8125 14.056 10.7467 14.1732 10.6294C14.2904 10.5122 14.3562 10.3533 14.3562 10.1875C14.3614 9.22839 14.1211 8.28391 13.6584 7.44379C13.1957 6.60367 12.5258 5.89582 11.7125 5.3875V5.3875Z" fill="#3182CE"/>
</svg>
