<svg width="13" height="13" viewBox="0 0 13 13" fill="none" xmlns="http://www.w3.org/2000/svg">
<path d="M0.562382 4.53752L6.18738 7.78752C6.28239 7.84237 6.39017 7.87125 6.49988 7.87125C6.60959 7.87125 6.71737 7.84237 6.81238 7.78752L12.4374 4.53752C12.5318 4.48298 12.6104 4.40468 12.6652 4.31038C12.72 4.21609 12.7492 4.10909 12.7499 4.00002C12.7503 3.88989 12.7216 3.7816 12.6668 3.68611C12.6119 3.59062 12.5328 3.51133 12.4374 3.45627L6.81238 0.212518C6.71737 0.157663 6.60959 0.128784 6.49988 0.128784C6.39017 0.128784 6.28239 0.157663 6.18738 0.212518L0.562382 3.45627C0.467004 3.51133 0.38787 3.59062 0.332993 3.68611C0.278116 3.7816 0.249445 3.88989 0.249882 4.00002C0.25054 4.10909 0.279731 4.21609 0.334553 4.31038C0.389376 4.40468 0.467921 4.48298 0.562382 4.53752V4.53752ZM6.49988 1.50002L10.8749 4.00002L6.49988 6.50002L2.12488 4.00002L6.49988 1.50002ZM11.8124 5.98127L6.49988 9.00002L1.18738 5.95627C1.11605 5.91494 1.03724 5.88814 0.955507 5.8774C0.873771 5.86666 0.790717 5.8722 0.711129 5.89369C0.631542 5.91519 0.556993 5.95221 0.491776 6.00264C0.426559 6.05307 0.371963 6.1159 0.331132 6.18752C0.249649 6.33103 0.228233 6.50094 0.271556 6.66018C0.314879 6.81942 0.419424 6.95507 0.562382 7.03752L6.18738 10.2875C6.28239 10.3424 6.39017 10.3713 6.49988 10.3713C6.60959 10.3713 6.71737 10.3424 6.81238 10.2875L12.4374 7.03752C12.5803 6.95507 12.6849 6.81942 12.7282 6.66018C12.7715 6.50094 12.7501 6.33103 12.6686 6.18752C12.6278 6.1159 12.5732 6.05307 12.508 6.00264C12.4428 5.95221 12.3682 5.91519 12.2886 5.89369C12.209 5.8722 12.126 5.86666 12.0443 5.8774C11.9625 5.88814 11.8837 5.91494 11.8124 5.95627V5.98127ZM11.8124 8.48127L6.49988 11.5L1.18738 8.45627C1.11605 8.41494 1.03724 8.38814 0.955507 8.3774C0.873771 8.36666 0.790717 8.3722 0.711129 8.39369C0.631542 8.41519 0.556993 8.45221 0.491776 8.50264C0.426559 8.55307 0.371963 8.6159 0.331132 8.68752C0.249649 8.83103 0.228233 9.00094 0.271556 9.16018C0.314879 9.31942 0.419424 9.45507 0.562382 9.53752L6.18738 12.7875C6.28239 12.8424 6.39017 12.8713 6.49988 12.8713C6.60959 12.8713 6.71737 12.8424 6.81238 12.7875L12.4374 9.53752C12.5803 9.45507 12.6849 9.31942 12.7282 9.16018C12.7715 9.00094 12.7501 8.83103 12.6686 8.68752C12.6278 8.6159 12.5732 8.55307 12.508 8.50264C12.4428 8.45221 12.3682 8.41519 12.2886 8.39369C12.209 8.3722 12.126 8.36666 12.0443 8.3774C11.9625 8.38814 11.8837 8.41494 11.8124 8.45627V8.48127Z" fill="#3182CE"/>
</svg>
