<svg width="12" height="13" viewBox="0 0 12 13" fill="none" xmlns="http://www.w3.org/2000/svg">
<path d="M1.125 6.5C0.95924 6.5 0.800269 6.56585 0.683058 6.68306C0.565848 6.80027 0.5 6.95924 0.5 7.125V12.125C0.5 12.2908 0.565848 12.4497 0.683058 12.5669C0.800269 12.6842 0.95924 12.75 1.125 12.75C1.29076 12.75 1.44973 12.6842 1.56694 12.5669C1.68415 12.4497 1.75 12.2908 1.75 12.125V7.125C1.75 6.95924 1.68415 6.80027 1.56694 6.68306C1.44973 6.56585 1.29076 6.5 1.125 6.5ZM4.25 0.25C4.08424 0.25 3.92527 0.315848 3.80806 0.433058C3.69085 0.550268 3.625 0.70924 3.625 0.875V12.125C3.625 12.2908 3.69085 12.4497 3.80806 12.5669C3.92527 12.6842 4.08424 12.75 4.25 12.75C4.41576 12.75 4.57473 12.6842 4.69194 12.5669C4.80915 12.4497 4.875 12.2908 4.875 12.125V0.875C4.875 0.70924 4.80915 0.550268 4.69194 0.433058C4.57473 0.315848 4.41576 0.25 4.25 0.25V0.25ZM10.5 9C10.3342 9 10.1753 9.06585 10.0581 9.18306C9.94085 9.30027 9.875 9.45924 9.875 9.625V12.125C9.875 12.2908 9.94085 12.4497 10.0581 12.5669C10.1753 12.6842 10.3342 12.75 10.5 12.75C10.6658 12.75 10.8247 12.6842 10.9419 12.5669C11.0592 12.4497 11.125 12.2908 11.125 12.125V9.625C11.125 9.45924 11.0592 9.30027 10.9419 9.18306C10.8247 9.06585 10.6658 9 10.5 9ZM7.375 4C7.20924 4 7.05027 4.06585 6.93306 4.18306C6.81585 4.30027 6.75 4.45924 6.75 4.625V12.125C6.75 12.2908 6.81585 12.4497 6.93306 12.5669C7.05027 12.6842 7.20924 12.75 7.375 12.75C7.54076 12.75 7.69973 12.6842 7.81694 12.5669C7.93415 12.4497 8 12.2908 8 12.125V4.625C8 4.45924 7.93415 4.30027 7.81694 4.18306C7.69973 4.06585 7.54076 4 7.375 4Z" fill="#3182CE"/>
</svg>
