<svg width="13" height="13" viewBox="0 0 13 13" fill="none" xmlns="http://www.w3.org/2000/svg">
<path d="M10.8749 3.0625H8.99988V2.4375C8.99988 1.94022 8.80233 1.46331 8.4507 1.11167C8.09907 0.760044 7.62216 0.5625 7.12488 0.5625H5.87488C5.3776 0.5625 4.90068 0.760044 4.54905 1.11167C4.19742 1.46331 3.99988 1.94022 3.99988 2.4375V3.0625H2.12488C1.6276 3.0625 1.15068 3.26004 0.799053 3.61167C0.447422 3.96331 0.249878 4.44022 0.249878 4.9375V10.5625C0.249878 11.0598 0.447422 11.5367 0.799053 11.8883C1.15068 12.24 1.6276 12.4375 2.12488 12.4375H10.8749C11.3722 12.4375 11.8491 12.24 12.2007 11.8883C12.5523 11.5367 12.7499 11.0598 12.7499 10.5625V4.9375C12.7499 4.44022 12.5523 3.96331 12.2007 3.61167C11.8491 3.26004 11.3722 3.0625 10.8749 3.0625ZM5.24988 2.4375C5.24988 2.27174 5.31573 2.11277 5.43294 1.99556C5.55015 1.87835 5.70912 1.8125 5.87488 1.8125H7.12488C7.29064 1.8125 7.44961 1.87835 7.56682 1.99556C7.68403 2.11277 7.74988 2.27174 7.74988 2.4375V3.0625H5.24988V2.4375ZM11.4999 10.5625C11.4999 10.7283 11.434 10.8872 11.3168 11.0044C11.1996 11.1217 11.0406 11.1875 10.8749 11.1875H2.12488C1.95912 11.1875 1.80015 11.1217 1.68294 11.0044C1.56573 10.8872 1.49988 10.7283 1.49988 10.5625V7.125C3.09129 7.75634 4.78781 8.0808 6.49988 8.08125C8.21189 8.0802 9.9083 7.75576 11.4999 7.125V10.5625ZM11.4999 5.75625C9.92388 6.44861 8.22126 6.80611 6.49988 6.80611C4.7785 6.80611 3.07588 6.44861 1.49988 5.75625V4.9375C1.49988 4.77174 1.56573 4.61277 1.68294 4.49556C1.80015 4.37835 1.95912 4.3125 2.12488 4.3125H10.8749C11.0406 4.3125 11.1996 4.37835 11.3168 4.49556C11.434 4.61277 11.4999 4.77174 11.4999 4.9375V5.75625Z" fill="#3182CE"/>
</svg>
