<svg width="15" height="16" viewBox="0 0 15 16" fill="none" xmlns="http://www.w3.org/2000/svg">
<g clip-path="url(#clip0_101_2725)">
<path d="M7.66277 3.46748C7.61915 3.42575 7.56112 3.40247 7.50075 3.40247C7.44039 3.40247 7.38236 3.42575 7.33874 3.46748L1.94519 8.61992C1.92228 8.64183 1.90406 8.66816 1.89162 8.69731C1.87919 8.72647 1.87279 8.75785 1.87283 8.78955L1.87195 13.6253C1.87195 13.8739 1.97072 14.1124 2.14654 14.2882C2.32235 14.464 2.56081 14.5628 2.80945 14.5628H5.62488C5.7492 14.5628 5.86842 14.5134 5.95633 14.4255C6.04424 14.3376 6.09363 14.2184 6.09363 14.094V10.1097C6.09363 10.0475 6.11832 9.98789 6.16227 9.94393C6.20623 9.89998 6.26584 9.87529 6.328 9.87529H8.67175C8.73391 9.87529 8.79352 9.89998 8.83748 9.94393C8.88143 9.98789 8.90613 10.0475 8.90613 10.1097V14.094C8.90613 14.2184 8.95551 14.3376 9.04342 14.4255C9.13133 14.5134 9.25056 14.5628 9.37488 14.5628H12.1891C12.4378 14.5628 12.6762 14.464 12.852 14.2882C13.0279 14.1124 13.1266 13.8739 13.1266 13.6253V8.78955C13.1267 8.75785 13.1203 8.72647 13.1078 8.69731C13.0954 8.66816 13.0772 8.64183 13.0543 8.61992L7.66277 3.46748Z" fill="white"/>
<path d="M14.3824 7.65369L12.191 5.5572V2.37585C12.191 2.25153 12.1416 2.13231 12.0537 2.0444C11.9658 1.95649 11.8465 1.9071 11.7222 1.9071H10.316C10.1917 1.9071 10.0724 1.95649 9.98452 2.0444C9.89661 2.13231 9.84722 2.25153 9.84722 2.37585V3.31335L8.15035 1.69089C7.99156 1.53035 7.75543 1.43835 7.50025 1.43835C7.24596 1.43835 7.01041 1.53035 6.85162 1.69119L0.620177 7.6531C0.437951 7.82888 0.415099 8.11804 0.580919 8.30847C0.622559 8.35654 0.673545 8.39563 0.730772 8.42337C0.788 8.4511 0.850273 8.46691 0.913802 8.46981C0.977331 8.47272 1.04079 8.46266 1.10031 8.44026C1.15983 8.41787 1.21417 8.38359 1.26002 8.33953L7.33912 2.53054C7.38274 2.48882 7.44077 2.46553 7.50113 2.46553C7.56149 2.46553 7.61953 2.48882 7.66314 2.53054L13.7428 8.33953C13.8324 8.42541 13.9523 8.47228 14.0764 8.46986C14.2005 8.46745 14.3185 8.41594 14.4046 8.32663C14.5845 8.14031 14.5696 7.83269 14.3824 7.65369Z" fill="white"/>
</g>
<defs>
<clipPath id="clip0_101_2725">
<rect width="15" height="15" fill="white" transform="translate(-0.00012207 0.5)"/>
</clipPath>
</defs>
</svg>
