<svg width="13" height="13" viewBox="0 0 13 13" fill="none" xmlns="http://www.w3.org/2000/svg">
<path d="M7.12512 4.625H5.87512V3.375C5.87512 3.20924 5.80927 3.05027 5.69206 2.93306C5.57485 2.81585 5.41588 2.75 5.25012 2.75C5.08436 2.75 4.92539 2.81585 4.80818 2.93306C4.69097 3.05027 4.62512 3.20924 4.62512 3.375V4.625H3.37512C3.20936 4.625 3.05039 4.69085 2.93318 4.80806C2.81597 4.92527 2.75012 5.08424 2.75012 5.25C2.75012 5.41576 2.81597 5.57473 2.93318 5.69194C3.05039 5.80915 3.20936 5.875 3.37512 5.875H4.62512V7.125C4.62512 7.29076 4.69097 7.44973 4.80818 7.56694C4.92539 7.68415 5.08436 7.75 5.25012 7.75C5.41588 7.75 5.57485 7.68415 5.69206 7.56694C5.80927 7.44973 5.87512 7.29076 5.87512 7.125V5.875H7.12512C7.29088 5.875 7.44985 5.80915 7.56706 5.69194C7.68427 5.57473 7.75012 5.41576 7.75012 5.25C7.75012 5.08424 7.68427 4.92527 7.56706 4.80806C7.44985 4.69085 7.29088 4.625 7.12512 4.625ZM10.2501 8.375V2.125C10.2501 1.62772 10.0526 1.15081 9.70095 0.799175C9.34932 0.447544 8.8724 0.25 8.37512 0.25H2.12512C1.62784 0.25 1.15093 0.447544 0.799297 0.799175C0.447666 1.15081 0.250122 1.62772 0.250122 2.125V8.375C0.250122 8.87228 0.447666 9.34919 0.799297 9.70083C1.15093 10.0525 1.62784 10.25 2.12512 10.25H8.37512C8.8724 10.25 9.34932 10.0525 9.70095 9.70083C10.0526 9.34919 10.2501 8.87228 10.2501 8.375V8.375ZM1.50012 8.375V2.125C1.50012 1.95924 1.56597 1.80027 1.68318 1.68306C1.80039 1.56585 1.95936 1.5 2.12512 1.5H8.37512C8.54088 1.5 8.69985 1.56585 8.81706 1.68306C8.93427 1.80027 9.00012 1.95924 9.00012 2.125V8.375C9.00012 8.54076 8.93427 8.69973 8.81706 8.81694C8.69985 8.93415 8.54088 9 8.37512 9H2.12512C1.95936 9 1.80039 8.93415 1.68318 8.81694C1.56597 8.69973 1.50012 8.54076 1.50012 8.375ZM12.1251 2.75C11.9594 2.75 11.8004 2.81585 11.6832 2.93306C11.566 3.05027 11.5001 3.20924 11.5001 3.375V9.625C11.5001 10.1223 11.3026 10.5992 10.9509 10.9508C10.5993 11.3025 10.1224 11.5 9.62512 11.5H3.37512C3.20936 11.5 3.05039 11.5658 2.93318 11.6831C2.81597 11.8003 2.75012 11.9592 2.75012 12.125C2.75012 12.2908 2.81597 12.4497 2.93318 12.5669C3.05039 12.6842 3.20936 12.75 3.37512 12.75H9.62512C10.4539 12.75 11.2488 12.4208 11.8348 11.8347C12.4209 11.2487 12.7501 10.4538 12.7501 9.625V3.375C12.7501 3.20924 12.6843 3.05027 12.5671 2.93306C12.4499 2.81585 12.2909 2.75 12.1251 2.75Z" fill="#3182CE"/>
</svg>
