<svg width="13" height="13" viewBox="0 0 13 13" fill="none" xmlns="http://www.w3.org/2000/svg">
<path d="M10.875 4H10.25V2.125C10.25 1.62772 10.0525 1.15081 9.70083 0.799175C9.34919 0.447544 8.87228 0.25 8.375 0.25H2.125C1.62772 0.25 1.15081 0.447544 0.799175 0.799175C0.447544 1.15081 0.25 1.62772 0.25 2.125V9.625C0.250616 9.74839 0.287742 9.86884 0.356701 9.97116C0.425659 10.0735 0.523363 10.1531 0.6375 10.2C0.711675 10.235 0.793015 10.2521 0.875 10.25C0.957254 10.2505 1.03879 10.2347 1.11494 10.2036C1.19109 10.1725 1.26035 10.1267 1.31875 10.0687L3.075 8.30625H4V9.20625C4 9.70353 4.19754 10.1804 4.54917 10.5321C4.90081 10.8837 5.37772 11.0812 5.875 11.0812H10.2L11.6813 12.5687C11.7397 12.6267 11.8089 12.6725 11.8851 12.7036C11.9612 12.7347 12.0427 12.7505 12.125 12.75C12.207 12.7521 12.2883 12.735 12.3625 12.7C12.4766 12.6531 12.5743 12.5735 12.6433 12.4712C12.7123 12.3688 12.7494 12.2484 12.75 12.125V5.875C12.75 5.37772 12.5525 4.90081 12.2008 4.54917C11.8492 4.19754 11.3723 4 10.875 4ZM4 5.875V7.05625H2.81875C2.7365 7.05577 2.65496 7.07154 2.57881 7.10264C2.50266 7.13375 2.4334 7.17957 2.375 7.2375L1.5 8.11875V2.125C1.5 1.95924 1.56585 1.80027 1.68306 1.68306C1.80027 1.56585 1.95924 1.5 2.125 1.5H8.375C8.54076 1.5 8.69973 1.56585 8.81694 1.68306C8.93415 1.80027 9 1.95924 9 2.125V4H5.875C5.37772 4 4.90081 4.19754 4.54917 4.54917C4.19754 4.90081 4 5.37772 4 5.875ZM11.5 10.6188L10.875 9.99375C10.8171 9.93469 10.7481 9.88771 10.6719 9.85553C10.5957 9.82334 10.5139 9.80659 10.4313 9.80625H5.875C5.70924 9.80625 5.55027 9.7404 5.43306 9.62319C5.31585 9.50598 5.25 9.34701 5.25 9.18125V5.875C5.25 5.70924 5.31585 5.55027 5.43306 5.43306C5.55027 5.31585 5.70924 5.25 5.875 5.25H10.875C11.0408 5.25 11.1997 5.31585 11.3169 5.43306C11.4342 5.55027 11.5 5.70924 11.5 5.875V10.6188Z" fill="#3182CE"/>
</svg>
