<svg width="14" height="14" viewBox="0 0 14 14" fill="none" xmlns="http://www.w3.org/2000/svg">
<path d="M12.8796 11.8459L10.123 9.08935C10.7867 8.20586 11.145 7.13047 11.1437 6.02549C11.1437 3.20303 8.84746 0.906738 6.025 0.906738C3.20254 0.906738 0.90625 3.20303 0.90625 6.02549C0.90625 8.84795 3.20254 11.1442 6.025 11.1442C7.12998 11.1454 8.20537 10.7872 9.08886 10.1235L11.8454 12.8801C11.9849 13.0048 12.1669 13.0714 12.354 13.0662C12.5411 13.0609 12.7191 12.9843 12.8514 12.8519C12.9838 12.7196 13.0604 12.5416 13.0657 12.3545C13.0709 12.1674 13.0043 11.9854 12.8796 11.8459ZM2.36875 6.02549C2.36875 5.30235 2.58318 4.59545 2.98494 3.99418C3.38669 3.39292 3.95772 2.92429 4.62581 2.64755C5.2939 2.37082 6.02905 2.29841 6.7383 2.43949C7.44754 2.58057 8.09902 2.92879 8.61036 3.44013C9.12169 3.95146 9.46992 4.60294 9.61099 5.31219C9.75207 6.02143 9.67966 6.75658 9.40293 7.42467C9.1262 8.09276 8.65757 8.66379 8.0563 9.06555C7.45503 9.4673 6.74814 9.68173 6.025 9.68173C5.05566 9.68057 4.12635 9.29499 3.44092 8.60956C2.7555 7.92413 2.36991 6.99483 2.36875 6.02549Z" fill="#2D3748"/>
</svg>
